Coordinates
nRows=8
nColumns=24

# SIMM Motion File Header:
name Coordinates
datacolumns 24
datarows 8
otherdata 1
range 0.24332999999999999000 0.25033000000000000000

Units are S.I. units (second, meters, Newtons, ...)
Angles are in degrees.

endheader
time	pelvis_tx	pelvis_ty	pelvis_tz	pelvis_tilt	pelvis_list	pelvis_rotation	hip_flexion_r	hip_adduction_r	hip_rotation_r	knee_angle_r	ankle_angle_r	subtalar_angle_r	mtp_angle_r	hip_flexion_l	hip_adduction_l	hip_rotation_l	knee_angle_l	ankle_angle_l	subtalar_angle_l	mtp_angle_l	lumbar_extension	lumbar_bending	lumbar_rotation
      0.24332999999999999000	      1.45242311166686110000	      0.84055135327515107000	     -0.26569537149521333000	     -5.40609181729126660000	      3.34816772472763270000	     -3.87245677979738810000	      3.48118533330914070000	     -6.68536024891369160000	     -0.79002564560170818000	    -49.17196050532508900000	    -20.25725782078218300000	      0.00000000000000000000	      0.00000000000000000000	     13.27107369260254000000	      6.04901016708848260000	      0.64108981899735995000	     -5.45279707895415560000	     -3.40915256646123810000	      0.00000000000000000000	      0.00000000000000000000	      7.33400924425702620000	     -5.01554651037499080000	     11.48844114231247100000
      0.24432999999999999000	      1.45323663850726440000	      0.84053165870445767000	     -0.26582830185428707000	     -5.41299789478108460000	      3.34488899554778780000	     -3.88117001066189800000	      3.65250219318429630000	     -6.70891316474016270000	     -0.78103801240661519000	    -49.45132672877163300000	    -20.19020940728571700000	      0.00000000000000000060	     -0.00000000000000000096	     13.19541134928614800000	      6.05759863309526110000	      0.61567078687914689000	     -5.40659097424215580000	     -3.37021120074958610000	     -0.00000000000000001036	      0.00000000000000000471	      7.34030565137368110000	     -4.99476718683138810000	     11.45757429704971600000
      0.24532999999999999000	      1.45404918627610400000	      0.84051102668198108000	     -0.26596077193576806000	     -5.42003659777539150000	      3.34172045716648910000	     -3.88980199279221270000	      3.82406946228031240000	     -6.73223273461528480000	     -0.77152732042236927000	    -49.72988362337933700000	    -20.12193920467190700000	      0.00000000000000000069	     -0.00000000000000000159	     13.11997207153162400000	      6.06623049387088290000	      0.59043859030250501000	     -5.36038231115833770000	     -3.33141016247114360000	     -0.00000000000000004816	     -0.00000000000000001431	      7.34681264806855780000	     -4.97417581034878250000	     11.42679333360752400000
      0.24632999999999999000	      1.45486073759289500000	      0.84048948086377939000	     -0.26609276769381507000	     -5.42721068494794780000	      3.33867040462024980000	     -3.89834678730957360000	      3.99588887928458950000	     -6.75530679104049800000	     -0.76146053112204815000	    -50.00756844815287400000	    -20.05236234099478700000	      0.00000000000000000031	     -0.00000000000000000235	     13.04475536152424200000	      6.07491568938221430000	      0.56541849284591494000	     -5.31416696695403080000	     -3.29264605981969720000	     -0.00000000000000010153	     -0.00000000000000005474	      7.35352854374231770000	     -4.95378886793856930000	     11.39610239236546500000
      0.24732999999999999000	      1.45567125971104620000	      0.84046703667706602000	     -0.26622426804121607000	     -5.43453095476358870000	      3.33574723459967260000	     -3.90679874790905270000	      4.16797533075340180000	     -6.77811811616049730000	     -0.75079414362685648000	    -50.28431403262048600000	    -19.98137925688796900000	      0.00000000000000000016	     -0.00000000000000000341	     12.96977486700335400000	      6.08366083500037380000	      0.54062656182984792000	     -5.26794927221248790000	     -3.25392074501141030000	     -0.00000000000000014463	     -0.00000000000000012392	      7.36045874472399840000	     -4.93362381643871380000	     11.36550794431225400000
      0.24833000000000000000	      1.45648072052924850000	      0.84044370977427596000	     -0.26635525244970421000	     -5.44200789283155920000	      3.33295911046192960000	     -3.91515228757282020000	      4.34034322706108000000	     -6.80064958030917490000	     -0.73948542506211379000	    -50.56005352644820100000	    -19.90889230084979600000	      0.00000000000000000100	     -0.00000000000000000515	     12.89504408213179900000	      6.09247229609109640000	      0.51607838595612299000	     -5.22173382842500370000	     -3.21523695527398300000	     -0.00000000000000015809	     -0.00000000000000020143	      7.36760841170763750000	     -4.91369768219531090000	     11.33501623001239400000
      0.24933000000000000000	      1.45728908877055560000	      0.84041951608161580000	     -0.26648570107943265000	     -5.44965155971427690000	      3.33031393310165220000	     -3.92340187879695580000	      4.51300631205174520000	     -6.82288421043421420000	     -0.72749253957588544000	    -50.83472048340404100000	    -19.83480604456003200000	      0.00000000000000000061	     -0.00000000000000000765	     12.82057617426706600000	      6.10135619473806480000	      0.49178914364057569000	     -5.17552543791607890000	     -3.17659732554876720000	     -0.00000000000000014703	     -0.00000000000000031858	      7.37498234991425590000	     -4.89402700335309860000	     11.30463319650183600000
      0.25033000000000000000	      1.45809633399011960000	      0.84039447176622317000	     -0.26661559480181296000	     -5.45747156376647790000	      3.32781932248649650000	     -3.93154205923973570000	      4.68597761429353450000	     -6.84480520604940960000	     -0.71477460742560528000	    -51.10824889462819700000	    -19.75902743281030600000	      0.00000000000000000055	     -0.00000000000000001133	     12.74638395640671900000	      6.11031839863637140000	      0.46777357639218820000	     -5.12932912004968780000	     -3.13800437709887350000	     -0.00000000000000013297	     -0.00000000000000043220	      7.38258497288433000000	     -4.87462779883289430000	     11.27436445874806000000
